<svg xmlns="http://www.w3.org/2000/svg" xmlns:xlink="http://www.w3.org/1999/xlink" viewBox="0 0 1324 1324"><defs><style>.a{fill:#39b54a;}.b,.c,.e,.f{opacity:0.6;}.b{fill:url(#a);}.c{fill:url(#b);}.d{fill:#29abe2;}.e{fill:url(#c);}.f{fill:url(#d);}</style><linearGradient id="a" x1="527" y1="1125.75" x2="850.75" y2="1125.75" gradientTransform="matrix(1, 0, 0, -1, -118.75, 2251.5)" gradientUnits="userSpaceOnUse"><stop offset="0" stop-color="#231f20"/><stop offset="0.06" stop-color="#231f20" stop-opacity="0.86"/><stop offset="0.33" stop-color="#231f20" stop-opacity="0.38"/><stop offset="0.63" stop-color="#231f20" stop-opacity="0.09"/><stop offset="1" stop-color="#231f20" stop-opacity="0"/></linearGradient><linearGradient id="b" x1="527" y1="198.25" x2="850.75" y2="198.25" gradientTransform="matrix(1, 0, 0, -1, -118.75, 396.5)" xlink:href="#a"/><linearGradient id="c" x1="732" y1="198.25" x2="1055.75" y2="198.25" gradientTransform="matrix(1, 0, 0, 1, 0, 0)" xlink:href="#a"/><linearGradient id="d" x1="-31.25" y1="362.5" x2="292.5" y2="362.5" gradientTransform="matrix(1, 0, 0, -1, 531.37, 1256.37)" xlink:href="#a"/></defs><title>artboard-7</title><rect class="a" x="268.25" y="1055.75" width="787.5" height="140" rx="24.75" ry="24.75"/><rect class="b" x="408.25" y="1055.75" width="323.75" height="140" transform="translate(1140.25 2251.5) rotate(-180)"/><rect class="a" x="268.25" y="128.25" width="787.5" height="140" rx="24.75" ry="24.75"/><rect class="c" x="408.25" y="128.25" width="323.75" height="140" transform="translate(1140.25 396.5) rotate(-180)"/><path class="d" d="M732,128.25h299A24.75,24.75,0,0,1,1055.75,153v90.5A24.75,24.75,0,0,1,1031,268.25H732a0,0,0,0,1,0,0v-140A0,0,0,0,1,732,128.25Z"/><path class="d" d="M732,1055.75H592l140,140h299a24.75,24.75,0,0,0,24.75-24.75v-90.5a24.75,24.75,0,0,0-24.75-24.75Z"/><polygon class="d" points="592 268.25 592 1055.75 732 1055.75 732 268.25 732 128.25 592 268.25"/><path class="e" d="M732,128.25h299A24.75,24.75,0,0,1,1055.75,153v90.5A24.75,24.75,0,0,1,1031,268.25H732a0,0,0,0,1,0,0v-140A0,0,0,0,1,732,128.25Z"/><rect class="f" x="500.13" y="823.87" width="323.75" height="140" transform="translate(-231.88 1555.87) rotate(-90)"/></svg>