<?xml version="1.0" standalone="no"?>
<!DOCTYPE svg PUBLIC "-//W3C//DTD SVG 20010904//EN"
 "http://www.w3.org/TR/2001/REC-SVG-20010904/DTD/svg10.dtd">
<svg version="1.0" xmlns="http://www.w3.org/2000/svg"
 width="512.000000pt" height="512.000000pt" viewBox="0 0 512.000000 512.000000"
 preserveAspectRatio="xMidYMid meet">
<metadata>
Created by potrace 1.11, written by Peter Selinger 2001-2013
</metadata>
<g transform="translate(0.000000,512.000000) scale(0.100000,-0.100000)"
fill="#000000" stroke="none">
<path d="M567 4819 c-98 -23 -199 -109 -245 -207 l-27 -57 0 -1995 0 -1995 27
-57 c54 -115 144 -183 313 -235 57 -17 142 -18 1960 -18 1816 0 1903 1 1960
18 160 49 242 132 292 292 17 57 18 143 18 1960 0 1818 -1 1903 -18 1960 -52
169 -120 259 -235 313 l-57 27 -1975 2 c-1131 0 -1991 -3 -2013 -8z m1858
-1749 c237 -319 434 -579 439 -577 6 2 201 263 435 580 l426 576 158 1 157 0
-2 -988 -3 -989 -28 -40 c-46 -66 -160 -113 -274 -113 l-33 0 0 745 c0 410 -3
745 -7 745 -5 -1 -152 -197 -327 -437 l-320 -436 -74 7 c-41 3 -121 6 -176 6
l-102 0 -338 435 c-187 239 -343 435 -347 435 -5 0 -9 -296 -9 -658 l0 -658
-26 -52 c-19 -38 -38 -59 -71 -79 -50 -29 -137 -53 -195 -53 l-38 0 0 1065 0
1065 163 0 162 0 430 -580z m-1005 -383 c0 -1068 3 -1024 -69 -1096 -45 -45
-110 -70 -203 -78 l-68 -6 0 935 c0 586 4 955 10 989 24 127 129 198 308 208
l22 1 0 -953z"/>
</g>
</svg>
